# xmcd
#
# Track frame offsets:
#	150
#	14410
#	18142
#	34335
#	50762
#	65690
#	75637
#	91892
#	104250
#	124392
#	137222
#	152965
#	186385
#	196027
#	206935
#	219930
#	234362
#	251980
#	258645
#	273437
#	287775
#
# Disc length: 4001 seconds
#
# Revision: 1
# Processed by: cddbd v1.5.1PL0 Copyright (c) Steve Scherf et al.
# Submitted via: CDex 1.50Beta5
#
DISCID=410f9f15
DTITLE=ピアノ深澤亮子 - 全音ピアノ名曲100選初級編-1
DYEAR=1994
DGENRE=Classical
TTITLE0=エリーゼのために
TTITLE1=楽しき農夫
TTITLE2=トルコ・マーチ
TTITLE3=G線上のアリア
TTITLE4=ラルゴ（歌劇「クセルクセス（セルセ）より）
TTITLE5=ガヴォット（ゴセック）
TTITLE6=セレナーデ（シューベルト白鳥の歌D.957-4)
TTITLE7=メヌエット（ボッケリーニ弦楽五重奏曲第11番）
TTITLE8=アルプスの夕ばえ
TTITLE9=勿忘草
TTITLE10=アヴェ・マリア（グノー）
TTITLE11=パッヘルベルのカノン
TTITLE12=カッコー・ワルツ
TTITLE13=人形の夢と目覚め
TTITLE14=荒野のバラ
TTITLE15=ユーモレスク
TTITLE16=金婚式
TTITLE17=クシコス　ポスト
TTITLE18=歌の翼にのせて
TTITLE19=夕べのさえずり
TTITLE20=ゴリウォークのケークウォーク
EXTD=
EXTT0=
EXTT1=
EXTT2=
EXTT3=
EXTT4=
EXTT5=
EXTT6=
EXTT7=
EXTT8=
EXTT9=
EXTT10=
EXTT11=
EXTT12=
EXTT13=
EXTT14=
EXTT15=
EXTT16=
EXTT17=
EXTT18=
EXTT19=
EXTT20=
PLAYORDER=
